<svg width="129" height="46" viewBox="0 0 129 46" fill="none" xmlns="http://www.w3.org/2000/svg">
<path d="M113.225 34.18C111.005 34.18 109.25 33.61 107.96 32.47C106.67 31.33 106.025 29.53 106.025 27.07C106.025 25 106.43 22.735 107.24 20.275C108.05 17.785 109.37 15.64 111.2 13.84C113.03 12.01 115.37 11.095 118.22 11.095C121.76 11.095 123.665 13.12 123.935 17.17C124.595 17.02 125.18 16.66 125.69 16.09C126.2 15.49 126.68 14.815 127.13 14.065H128.57C127.76 15.685 127.04 16.96 126.41 17.89C125.78 18.79 124.955 19.525 123.935 20.095C123.755 22.915 123.17 25.39 122.18 27.52C121.22 29.65 119.96 31.3 118.4 32.47C116.84 33.61 115.115 34.18 113.225 34.18ZM115.025 30.13C116.135 30.13 117.17 29.23 118.13 27.43C119.09 25.63 119.75 23.41 120.11 20.77C119.39 20.5 119.03 19.825 119.03 18.745C119.03 17.575 119.45 16.795 120.29 16.405C120.23 15.445 120.065 14.785 119.795 14.425C119.555 14.035 119.15 13.84 118.58 13.84C117.59 13.84 116.645 14.56 115.745 16C114.845 17.41 114.11 19.135 113.54 21.175C113 23.185 112.73 24.955 112.73 26.485C112.73 27.925 112.895 28.9 113.225 29.41C113.555 29.89 114.155 30.13 115.025 30.13Z" fill="#3C2F2F"/>
<path d="M91.8126 45.25C90.3726 45.25 89.1726 44.875 88.2126 44.125C87.2526 43.375 86.7726 42.295 86.7726 40.885C86.7726 39.175 87.4626 37.795 88.8426 36.745C90.2226 35.725 91.9776 34.87 94.1076 34.18L94.6476 31.795C93.1176 33.445 91.3176 34.27 89.2476 34.27C87.5376 34.27 86.1126 33.685 84.9726 32.515C83.8326 31.345 83.2626 29.515 83.2626 27.025C83.2626 24.805 83.6976 22.48 84.5676 20.05C85.4676 17.59 86.7876 15.52 88.5276 13.84C90.2976 12.13 92.3976 11.275 94.8276 11.275C96.0576 11.275 96.9726 11.485 97.5726 11.905C98.1726 12.325 98.4726 12.88 98.4726 13.57V13.84L98.9676 11.5H105.448L100.993 32.38C102.433 31.9 103.588 31.18 104.458 30.22C105.328 29.26 106.063 27.835 106.663 25.945H108.553C107.743 28.615 106.648 30.58 105.268 31.84C103.888 33.07 102.328 33.91 100.588 34.36L99.9126 37.6C99.3126 40.51 98.2776 42.505 96.8076 43.585C95.3376 44.695 93.6726 45.25 91.8126 45.25ZM92.1726 29.905C92.8626 29.905 93.5676 29.59 94.2876 28.96C95.0076 28.33 95.5026 27.475 95.7726 26.395L98.0676 15.73C98.0676 15.37 97.9176 15.01 97.6176 14.65C97.3176 14.26 96.8526 14.065 96.2226 14.065C95.0226 14.065 93.9426 14.77 92.9826 16.18C92.0226 17.56 91.2726 19.24 90.7326 21.22C90.1926 23.17 89.9226 24.895 89.9226 26.395C89.9226 27.895 90.1326 28.855 90.5526 29.275C91.0026 29.695 91.5426 29.905 92.1726 29.905ZM90.7776 41.74C91.2876 41.74 91.7826 41.395 92.2626 40.705C92.7426 40.015 93.1176 39.025 93.3876 37.735L93.6576 36.43C90.7176 37.51 89.2476 38.785 89.2476 40.255C89.2476 40.645 89.3826 40.99 89.6526 41.29C89.9226 41.59 90.2976 41.74 90.7776 41.74Z" fill="#3C2F2F"/>
<path d="M65.6051 34.27C63.8951 34.27 62.4701 33.685 61.3301 32.515C60.1901 31.345 59.6201 29.515 59.6201 27.025C59.6201 24.805 60.0551 22.48 60.9251 20.05C61.8251 17.59 63.1451 15.52 64.8851 13.84C66.6551 12.13 68.7551 11.275 71.1851 11.275C72.4151 11.275 73.3301 11.485 73.9301 11.905C74.5301 12.325 74.8301 12.88 74.8301 13.57V13.75L77.0351 3.4L83.6951 2.5L78.5201 26.8C78.4001 27.25 78.3401 27.73 78.3401 28.24C78.3401 28.84 78.4751 29.275 78.7451 29.545C79.0451 29.785 79.5251 29.905 80.1851 29.905C81.0251 29.905 81.7451 29.545 82.3451 28.825C82.9751 28.105 83.4701 27.145 83.8301 25.945H85.7201C83.8901 31.315 80.8751 34 76.6751 34C75.4451 34 74.4401 33.67 73.6601 33.01C72.9101 32.35 72.4451 31.39 72.2651 30.13C71.4851 31.33 70.5401 32.32 69.4301 33.1C68.3501 33.88 67.0751 34.27 65.6051 34.27ZM68.5301 29.905C69.2501 29.905 69.9701 29.575 70.6901 28.915C71.4401 28.255 71.9501 27.34 72.2201 26.17V25.945L74.4251 15.64C74.1551 14.59 73.5401 14.065 72.5801 14.065C71.3801 14.065 70.3001 14.77 69.3401 16.18C68.3801 17.56 67.6301 19.24 67.0901 21.22C66.5501 23.17 66.2801 24.895 66.2801 26.395C66.2801 27.895 66.4901 28.855 66.9101 29.275C67.3601 29.695 67.9001 29.905 68.5301 29.905Z" fill="#3C2F2F"/>
<path d="M46.9997 34.18C44.7797 34.18 43.0247 33.61 41.7347 32.47C40.4447 31.33 39.7997 29.53 39.7997 27.07C39.7997 25.03 40.2197 22.765 41.0597 20.275C41.8997 17.785 43.2497 15.64 45.1097 13.84C46.9697 12.01 49.3097 11.095 52.1297 11.095C55.9697 11.095 57.8897 13.495 57.8897 18.295V18.34C57.9797 18.37 58.1447 18.385 58.3847 18.385C59.3747 18.385 60.5147 18.13 61.8047 17.62C63.0947 17.08 64.2647 16.435 65.3147 15.685L65.7197 16.9C64.8497 17.83 63.7097 18.625 62.2997 19.285C60.9197 19.915 59.4047 20.365 57.7547 20.635C57.5147 23.365 56.8997 25.75 55.9097 27.79C54.9197 29.83 53.6447 31.405 52.0847 32.515C50.5247 33.625 48.8297 34.18 46.9997 34.18ZM48.7997 30.13C49.5197 30.13 50.2397 29.725 50.9597 28.915C51.6797 28.075 52.3097 26.95 52.8497 25.54C53.3897 24.1 53.7797 22.51 54.0197 20.77C53.2097 20.59 52.8047 19.96 52.8047 18.88C52.8047 17.65 53.2697 16.84 54.1997 16.45C54.1397 15.46 53.9897 14.785 53.7497 14.425C53.5097 14.035 53.0897 13.84 52.4897 13.84C51.4997 13.84 50.5397 14.56 49.6097 16C48.6797 17.44 47.9297 19.165 47.3597 21.175C46.7897 23.185 46.5047 24.955 46.5047 26.485C46.5047 27.925 46.6697 28.9 46.9997 29.41C47.3297 29.89 47.9297 30.13 48.7997 30.13Z" fill="#3C2F2F"/>
<path d="M27.2243 34.18C25.0043 34.18 23.2493 33.61 21.9593 32.47C20.6693 31.33 20.0243 29.53 20.0243 27.07C20.0243 25.03 20.4443 22.765 21.2843 20.275C22.1243 17.785 23.4743 15.64 25.3343 13.84C27.1943 12.01 29.5343 11.095 32.3543 11.095C36.1943 11.095 38.1143 13.495 38.1143 18.295V18.34C38.2043 18.37 38.3693 18.385 38.6093 18.385C39.5993 18.385 40.7393 18.13 42.0293 17.62C43.3193 17.08 44.4893 16.435 45.5393 15.685L45.9443 16.9C45.0743 17.83 43.9343 18.625 42.5243 19.285C41.1443 19.915 39.6293 20.365 37.9793 20.635C37.7393 23.365 37.1243 25.75 36.1343 27.79C35.1443 29.83 33.8693 31.405 32.3093 32.515C30.7493 33.625 29.0543 34.18 27.2243 34.18ZM29.0243 30.13C29.7443 30.13 30.4643 29.725 31.1843 28.915C31.9043 28.075 32.5343 26.95 33.0743 25.54C33.6143 24.1 34.0043 22.51 34.2443 20.77C33.4343 20.59 33.0293 19.96 33.0293 18.88C33.0293 17.65 33.4943 16.84 34.4243 16.45C34.3643 15.46 34.2143 14.785 33.9743 14.425C33.7343 14.035 33.3143 13.84 32.7143 13.84C31.7243 13.84 30.7643 14.56 29.8343 16C28.9043 17.44 28.1543 19.165 27.5843 21.175C27.0143 23.185 26.7293 24.955 26.7293 26.485C26.7293 27.925 26.8943 28.9 27.2243 29.41C27.5543 29.89 28.1543 30.13 29.0243 30.13Z" fill="#3C2F2F"/>
<path d="M10.44 3.94C8.55003 4 7.09503 4.72 6.07503 6.1C5.08503 7.48 4.59003 9.865 4.59003 13.255C4.59003 14.365 4.69503 15.145 4.90503 15.595C5.11503 16.015 5.22003 16.255 5.22003 16.315C3.60003 16.315 2.38503 15.985 1.57503 15.325C0.795029 14.635 0.405029 13.51 0.405029 11.95C0.405029 9.82 0.930029 7.885 1.98003 6.145C3.03003 4.375 4.69503 2.95 6.97503 1.87C9.28503 0.79 12.21 0.25 15.75 0.25C16.47 0.25 17.43 0.325001 18.63 0.475C20.79 0.685001 22.32 0.790001 23.22 0.790001C24.81 0.790001 26.16 0.610001 27.27 0.25C27.18 0.52 27.015 1.12 26.775 2.05C26.535 2.95 26.1 3.73 25.47 4.39C24.87 5.02 24.045 5.44 22.995 5.65C21.225 5.65 19.125 5.365 16.695 4.795L14.805 13.75H21.375L20.655 17.08H14.085L10.44 34H3.96003L10.44 3.94Z" fill="#3C2F2F"/>
</svg>